<svg width="24" height="24" viewBox="0 0 24 24" fill="none" xmlns="http://www.w3.org/2000/svg">
<path d="M3.09277 9.40445H20.9167" stroke="#E117D9" stroke-linecap="round" stroke-linejoin="round"/>
<path fill-rule="evenodd" clip-rule="evenodd" d="M6.80811 13.3096C6.80811 12.8954 7.14389 12.5596 7.55811 12.5596H7.56737C7.98158 12.5596 8.31737 12.8954 8.31737 13.3096C8.31737 13.7238 7.98158 14.0596 7.56737 14.0596H7.55811C7.14389 14.0596 6.80811 13.7238 6.80811 13.3096ZM12.0048 12.5596C11.5906 12.5596 11.2548 12.8954 11.2548 13.3096C11.2548 13.7238 11.5906 14.0596 12.0048 14.0596H12.0141C12.4283 14.0596 12.7641 13.7238 12.7641 13.3096C12.7641 12.8954 12.4283 12.5596 12.0141 12.5596H12.0048ZM16.4423 12.5596C16.0281 12.5596 15.6923 12.8954 15.6923 13.3096C15.6923 13.7238 16.0281 14.0596 16.4423 14.0596H16.4516C16.8658 14.0596 17.2016 13.7238 17.2016 13.3096C17.2016 12.8954 16.8658 12.5596 16.4516 12.5596H16.4423ZM16.4423 16.446C16.0281 16.446 15.6923 16.7818 15.6923 17.196C15.6923 17.6103 16.0281 17.946 16.4423 17.946H16.4516C16.8658 17.946 17.2016 17.6103 17.2016 17.196C17.2016 16.7818 16.8658 16.446 16.4516 16.446H16.4423ZM11.2548 17.196C11.2548 16.7818 11.5906 16.446 12.0048 16.446H12.0141C12.4283 16.446 12.7641 16.7818 12.7641 17.196C12.7641 17.6103 12.4283 17.946 12.0141 17.946H12.0048C11.5906 17.946 11.2548 17.6103 11.2548 17.196ZM7.55811 16.446C7.14389 16.446 6.80811 16.7818 6.80811 17.196C6.80811 17.6103 7.14389 17.946 7.55811 17.946H7.56737C7.98158 17.946 8.31737 17.6103 8.31737 17.196C8.31737 16.7818 7.98158 16.446 7.56737 16.446H7.55811Z" fill="#E117D9"/>
<path d="M16.0438 2V5.29078" stroke="#E117D9" stroke-linecap="round" stroke-linejoin="round"/>
<path d="M7.96564 2V5.29078" stroke="#E117D9" stroke-linecap="round" stroke-linejoin="round"/>
<path fill-rule="evenodd" clip-rule="evenodd" d="M16.2383 3.5791H7.77096C4.83427 3.5791 3 5.21504 3 8.22213V17.2718C3 20.3261 4.83427 21.9999 7.77096 21.9999H16.229C19.175 21.9999 21 20.3545 21 17.3474V8.22213C21.0092 5.21504 19.1842 3.5791 16.2383 3.5791Z" stroke="#E117D9" stroke-linecap="round" stroke-linejoin="round"/>
</svg>
