<svg width="335" height="50" viewBox="0 0 335 50" fill="none" xmlns="http://www.w3.org/2000/svg">
<path d="M66.2579 31.6346H89.0522C88.4727 35.3526 86.6054 38.5897 83.4502 41.3462C80.3595 44.1026 75.82 46.25 69.8316 47.7885C63.9077 49.2628 56.3418 50 47.1339 50C37.4109 50 29.008 49.2308 21.925 47.6923C14.9064 46.1538 9.49762 43.5577 5.69857 39.9038C1.89952 36.25 0 31.3141 0 25.0962C0 18.9423 1.83513 14.0385 5.5054 10.3846C9.24006 6.66667 14.6167 4.00641 21.6352 2.40384C28.6538 0.801281 37.1534 0 47.1339 0C56.9213 0 64.9379 0.865384 71.1838 2.59615C77.4297 4.32692 82.0337 7.14744 84.9956 11.0577C87.9576 14.9038 89.3742 20.1282 89.2454 26.7308H23.567C23.8889 28.3974 24.7904 29.9359 26.2714 31.3462C27.8167 32.7564 30.167 33.9103 33.3221 34.8077C36.5417 35.641 40.8237 36.0577 46.1681 36.0577C51.7057 36.0577 56.2452 35.6731 59.7867 34.9038C63.3926 34.1346 65.5497 33.0449 66.2579 31.6346ZM46.1681 13.9423C39.3427 13.9423 34.127 14.6795 30.5212 16.1538C26.9797 17.6282 24.887 19.1026 24.2431 20.5769H66.7409C66.2901 18.9103 64.4872 17.4038 61.3321 16.0577C58.1769 14.6474 53.1223 13.9423 46.1681 13.9423Z" fill="white"/>
<path d="M134.145 39.9038L123.134 39.7115L147.474 1.44231H173.069L139.361 48.5577H117.532L85.3691 1.44231H110.868L134.145 39.9038Z" fill="white"/>
<path d="M234.491 31.6346H257.285C256.706 35.3526 254.838 38.5897 251.683 41.3462C248.593 44.1026 244.053 46.25 238.065 47.7885C232.141 49.2628 224.575 50 215.367 50C205.644 50 197.241 49.2308 190.158 47.6923C183.139 46.1538 177.731 43.5577 173.932 39.9038C170.133 36.25 168.233 31.3141 168.233 25.0962C168.233 18.9423 170.068 14.0385 173.738 10.3846C177.473 6.66667 182.85 4.00641 189.868 2.40384C196.887 0.801281 205.386 0 215.367 0C225.154 0 233.171 0.865384 239.417 2.59615C245.663 4.32692 250.267 7.14744 253.229 11.0577C256.191 14.9038 257.607 20.1282 257.478 26.7308H191.8C192.122 28.3974 193.023 29.9359 194.504 31.3462C196.05 32.7564 198.4 33.9103 201.555 34.8077C204.775 35.641 209.057 36.0577 214.401 36.0577C219.939 36.0577 224.478 35.6731 228.02 34.9038C231.626 34.1346 233.783 33.0449 234.491 31.6346ZM214.401 13.9423C207.576 13.9423 202.36 14.6795 198.754 16.1538C195.213 17.6282 193.12 19.1026 192.476 20.5769H234.974C234.523 18.9103 232.72 17.4038 229.565 16.0577C226.41 14.6474 221.355 13.9423 214.401 13.9423Z" fill="white"/>
<path d="M260.39 1.44231H283.57V48.5577H260.39V1.44231ZM308.489 19.2308C304.304 19.2308 300.473 19.6154 296.996 20.3846C293.519 21.1538 290.557 22.0833 288.11 23.1731C285.663 24.1987 283.828 25.2244 282.604 26.25L282.411 21.6346C282.604 20.2885 283.12 18.7179 283.957 16.9231C284.794 15.0641 285.92 13.1731 287.337 11.25C288.754 9.26282 290.492 7.43589 292.553 5.76923C294.613 4.03846 296.963 2.66025 299.603 1.63461C302.308 0.54487 305.27 0 308.489 0V19.2308Z" fill="white"/>
<path d="M335 34.0385V48.5577H310.467V34.0385H335Z" fill="white"/>
<path d="M335 34.0381V48.5573H310.467V34.0381H335Z" fill="#E117D9"/>
</svg>
