<svg width="337" height="52" viewBox="0 0 337 52" fill="none" xmlns="http://www.w3.org/2000/svg">
<path opacity="0.4" d="M67.2579 32.1346H66.9496L66.8111 32.4102C66.5246 32.9808 65.9142 33.5426 64.8835 34.0633C63.8578 34.5815 62.4628 35.035 60.6824 35.4148L60.6806 35.4152C57.1871 36.174 52.6866 36.5577 47.1681 36.5577C41.8469 36.5577 37.6141 36.1425 34.4532 35.3251C31.3402 34.4391 29.0763 33.3147 27.6123 31.9804C26.377 30.803 25.5826 29.5531 25.2009 28.2308H90.2454H90.7357L90.7453 27.7405C90.8755 21.0658 89.4448 15.7179 86.3929 11.7541C83.3462 7.73289 78.6341 4.86473 72.3174 3.11431C66.0119 1.36703 57.946 0.5 48.1339 0.5C38.1292 0.5 29.59 1.30299 22.5239 2.91639C15.4463 4.53244 9.97382 7.22618 6.15264 11.0303C2.37063 14.7954 0.5 19.8362 0.5 26.0962C0.5 32.4236 2.43736 37.4992 6.35197 41.2642C10.2375 45.0012 15.7408 47.6294 22.818 49.1807L22.8189 49.1809C29.9462 50.729 38.3865 51.5 48.1339 51.5C57.3641 51.5 64.9744 50.7615 70.9524 49.2737L70.956 49.2727C76.9856 47.7237 81.6089 45.5494 84.7813 42.7208C88.013 39.8968 89.9467 36.5582 90.5463 32.7116L90.6362 32.1346H90.0522H67.2579ZM62.128 17.5142L62.128 17.5142L62.1359 17.5176C64.8122 18.6594 66.3679 19.8641 67.0073 21.0769H26.1349C26.4663 20.6613 26.9424 20.2258 27.5835 19.7741C28.5888 19.0659 29.9606 18.3452 31.7118 17.6161C35.2285 16.1786 40.3671 15.4423 47.1681 15.4423C54.1089 15.4423 59.0741 16.1492 62.128 17.5142ZM129.727 30.9861L112.296 2.18342L112.15 1.94231H111.868H86.3691H85.4224L85.9562 2.72421L118.119 49.8396L118.268 50.0577H118.532H140.361H140.618L140.767 49.8486L174.476 2.73324L175.042 1.94231H174.069H148.474H148.199L148.052 2.17397L129.727 30.9861ZM235.491 32.1346H235.183L235.044 32.4102C234.758 32.9808 234.147 33.5426 233.117 34.0633C232.091 34.5815 230.696 35.035 228.915 35.4148L228.914 35.4152C225.42 36.174 220.92 36.5577 215.401 36.5577C210.08 36.5577 205.847 36.1425 202.686 35.3251C199.573 34.4391 197.309 33.3147 195.845 31.9805C194.61 30.8031 193.816 29.5531 193.434 28.2308H258.478H258.969L258.978 27.7405C259.109 21.0655 257.678 15.7173 254.625 11.7535C251.579 7.7326 246.867 4.86464 240.55 3.11431C234.245 1.36703 226.179 0.5 216.367 0.5C206.362 0.5 197.823 1.30299 190.757 2.91639C183.679 4.53244 178.207 7.22618 174.386 11.0303C170.604 14.7954 168.733 19.8362 168.733 26.0962C168.733 32.4236 170.67 37.4992 174.585 41.2642C178.471 45.0012 183.974 47.6294 191.051 49.1807L191.052 49.1809C198.179 50.729 206.62 51.5 216.367 51.5C225.597 51.5 233.207 50.7615 239.185 49.2737L239.189 49.2727C245.218 47.7238 249.842 45.5496 253.014 42.7212C256.246 39.8971 258.18 36.5583 258.779 32.7116L258.869 32.1346H258.285H235.491ZM230.361 17.5142L230.369 17.5176C233.045 18.6594 234.601 19.8641 235.24 21.0769H194.368C194.699 20.6613 195.175 20.2258 195.817 19.7741C196.822 19.0659 198.194 18.3453 199.945 17.6162C203.461 16.1786 208.6 15.4423 215.401 15.4423C222.342 15.4423 227.307 16.1492 230.361 17.5142ZM261.39 1.94231H260.89V2.44231V49.5577V50.0577H261.39H284.57H285.07V49.5577V26.7934C286.158 26.0833 287.566 25.3626 289.303 24.6343L289.313 24.6298C291.721 23.5574 294.649 22.637 298.104 21.8728C301.54 21.1127 305.334 20.7308 309.489 20.7308H309.989V20.2308V1V0.5H309.489C306.214 0.5 303.189 1.05437 300.42 2.16956C297.734 3.21328 295.338 4.61738 293.235 6.38318C291.145 8.07439 289.376 9.93192 287.932 11.9568C286.797 13.4983 285.842 15.0238 285.07 16.5334V2.44231V1.94231H284.57H261.39ZM336.5 35.0385V34.5385H336H311.467H310.967V35.0385V49.5577V50.0577H311.467H336H336.5V49.5577V35.0385Z" stroke="white"/>
</svg>
