<svg width="110" height="16" viewBox="0 0 110 16" fill="none" xmlns="http://www.w3.org/2000/svg">
<path d="M29.241 10.1231H21.7563C21.5238 10.5744 20.8155 10.9231 19.6315 11.1692C18.4686 11.4154 16.978 11.5385 15.1597 11.5385C13.4048 11.5385 11.9988 11.4051 10.9416 11.1385C9.96357 10.8674 9.22107 10.5231 8.71411 10.1058H0.265816C0.558777 11.1529 1.0939 12.0407 1.87117 12.7692C3.11862 13.9385 4.89465 14.7692 7.19926 15.2615C9.52501 15.7538 12.2842 16 15.4768 16C18.5003 16 20.9846 15.7641 22.9298 15.2923C24.8961 14.8 26.3867 14.1128 27.4016 13.2308C28.4376 12.3487 29.0507 11.3128 29.241 10.1231Z" fill="#080A1D"/>
<path fill-rule="evenodd" clip-rule="evenodd" d="M0.0157052 8.56731C0.00523507 8.3919 0 8.21306 0 8.03077C0 6.06154 0.602581 4.49231 1.80774 3.32308C3.03405 2.13333 4.7995 1.28205 7.10411 0.76923C9.40872 0.25641 12.1996 0 15.4768 0C18.6906 0 21.3229 0.276923 23.3738 0.830769C25.4247 1.38461 26.9364 2.28718 27.909 3.53846C28.8816 4.76923 29.3467 6.44103 29.3045 8.55385H7.73841C7.7393 8.55834 7.7402 8.56282 7.74112 8.56731H0.0157052ZM10.0219 5.16923C11.2059 4.69744 12.9185 4.46154 15.1597 4.46154C17.4431 4.46154 19.1029 4.68718 20.1389 5.13846C21.1749 5.56923 21.7669 6.05128 21.9149 6.58462H7.96041C8.17184 6.11282 8.859 5.64103 10.0219 5.16923Z" fill="#080A1D"/>
<path d="M42.2652 9.89899L48.4243 0.461538H56.8287L45.7602 15.5385H38.5927L28.0317 0.461538H36.4044L42.2652 9.89899Z" fill="#080A1D"/>
<path fill-rule="evenodd" clip-rule="evenodd" d="M84.4817 10.1231H76.997C76.7645 10.5744 76.0562 10.9231 74.8722 11.1692C73.7093 11.4154 72.2187 11.5385 70.4004 11.5385C68.6455 11.5385 67.2395 11.4051 66.1823 11.1385C65.1463 10.8513 64.3746 10.4821 63.8671 10.0308C63.3808 9.57949 63.0848 9.08718 62.9791 8.55385H84.5452C84.5875 6.44103 84.1223 4.76923 83.1497 3.53846C82.1771 2.28718 80.6654 1.38461 78.6145 0.830769C76.5636 0.276923 73.9313 0 70.7175 0C67.4403 0 64.6494 0.25641 62.3448 0.76923C60.0402 1.28205 58.2748 2.13333 57.0485 3.32308C55.8433 4.49231 55.2407 6.06154 55.2407 8.03077C55.2407 10.0205 55.8644 11.6 57.1119 12.7692C58.3593 13.9385 60.1354 14.7692 62.44 15.2615C64.7657 15.7538 67.5249 16 70.7175 16C73.741 16 76.2253 15.7641 78.1705 15.2923C80.1368 14.8 81.6274 14.1128 82.6423 13.2308C83.6783 12.3487 84.2915 11.3128 84.4817 10.1231ZM65.2626 5.16923C66.4466 4.69744 68.1592 4.46154 70.4004 4.46154C72.6838 4.46154 74.3436 4.68718 75.3796 5.13846C76.4156 5.56923 77.0076 6.05128 77.1556 6.58462H63.2011C63.4126 6.11282 64.0997 5.64103 65.2626 5.16923Z" fill="#080A1D"/>
<path d="M93.1126 0.461538H85.5011V15.5385H93.1126V8.16818C93.4921 7.91725 93.9889 7.66632 94.6032 7.41538C95.4067 7.06667 96.3792 6.76923 97.521 6.52308C98.6627 6.27692 99.9207 6.15385 101.295 6.15385V0C100.238 0 99.2653 0.174359 98.3773 0.523076C97.5104 0.851281 96.7387 1.29231 96.0621 1.84615C95.3855 2.37949 94.8146 2.9641 94.3495 3.6C93.8843 4.21538 93.5143 4.82051 93.2395 5.41538C93.1943 5.5097 93.1521 5.60209 93.1126 5.69254V0.461538Z" fill="#080A1D"/>
<path d="M110 15.5387V10.8926H101.944V15.5387H110Z" fill="#E117D9"/>
</svg>
