<svg width="24" height="24" viewBox="0 0 24 24" fill="none" xmlns="http://www.w3.org/2000/svg">
<path d="M13.8497 5V7.18632" stroke="#E117D9" stroke-linecap="round" stroke-linejoin="round"/>
<path d="M13.8497 17.2051V19.0336" stroke="#E117D9" stroke-linecap="round" stroke-linejoin="round"/>
<path d="M13.8497 14.1016V9.74609" stroke="#E117D9" stroke-linecap="round" stroke-linejoin="round"/>
<path fill-rule="evenodd" clip-rule="evenodd" d="M18.0319 19C19.6718 19 21 17.7247 21 16.1503V13.8818C19.9149 13.8818 19.041 13.0427 19.041 12.0009C19.041 10.9591 19.9149 10.1191 21 10.1191L20.9991 7.84975C20.9991 6.27527 19.6699 5 18.031 5H5.96902C4.3301 5 3.00094 6.27527 3.00094 7.84975L3 10.193C4.08511 10.193 4.95901 10.9591 4.95901 12.0009C4.95901 13.0427 4.08511 13.8818 3 13.8818V16.1503C3 17.7247 4.32822 19 5.96808 19H18.0319Z" stroke="#E117D9" stroke-linecap="round" stroke-linejoin="round"/>
</svg>
