<svg width="20" height="19" viewBox="0 0 20 19" fill="none" xmlns="http://www.w3.org/2000/svg">
<path fill-rule="evenodd" clip-rule="evenodd" d="M15.8573 17.4168C17.7323 17.4168 19.2503 15.8978 19.2503 14.0238V11.3238C18.0103 11.3238 17.0103 10.3238 17.0103 9.0848C17.0103 7.8448 18.0103 6.8458 19.2503 6.8458L19.2483 4.1428C19.2483 2.2688 17.7303 0.7498 15.8563 0.7498H4.14431C2.27031 0.7498 0.751305 2.2688 0.751305 4.1428L0.750305 6.9328C1.98931 6.9328 2.98931 7.8448 2.98931 9.0848C2.98931 10.3238 1.98931 11.3238 0.750305 11.3238V14.0238C0.750305 15.8978 2.26831 17.4168 4.14231 17.4168H15.8573Z" stroke="#9DA2AC" stroke-width="1.5" stroke-linecap="round" stroke-linejoin="round"/>
<path fill-rule="evenodd" clip-rule="evenodd" d="M9.99981 10.8543L11.7398 11.7693C11.9028 11.8543 12.0938 11.7163 12.0628 11.5353L11.7298 9.5963L13.1388 8.2253C13.2708 8.0963 13.1978 7.8733 13.0158 7.8463L11.0698 7.5633L10.1988 5.7993C10.1178 5.6343 9.88281 5.6343 9.80081 5.7993L8.92981 7.5633L6.98481 7.8463C6.80281 7.8733 6.72981 8.0963 6.86181 8.2253L8.2698 9.5963L7.93681 11.5353C7.90581 11.7163 8.09681 11.8543 8.25981 11.7693L9.99981 10.8543Z" stroke="#9DA2AC" stroke-width="1.5" stroke-linecap="round" stroke-linejoin="round"/>
</svg>
