<svg width="22" height="18" viewBox="0 0 22 18" fill="none" xmlns="http://www.w3.org/2000/svg">
<path d="M16.8877 7.8967C18.2827 7.7007 19.3567 6.5047 19.3597 5.0557C19.3597 3.6277 18.3187 2.4437 16.9537 2.2197M18.7285 11.2503C20.0795 11.4523 21.0225 11.9253 21.0225 12.9003C21.0225 13.5713 20.5785 14.0073 19.8605 14.2813M4.8848 7.8967C3.4888 7.7007 2.4158 6.5047 2.4128 5.0557C2.4128 3.6277 3.4538 2.4437 4.8188 2.2197M3.0439 11.2503C1.6929 11.4523 0.749901 11.9253 0.749901 12.9003C0.749901 13.5713 1.1939 14.0073 1.9119 14.2813M10.8867 11.6638C7.6727 11.6638 4.9277 12.1508 4.9277 14.0958C4.9277 16.0398 7.6557 16.5408 10.8867 16.5408C14.1007 16.5408 16.8447 16.0588 16.8447 14.1128C16.8447 12.1668 14.1177 11.6638 10.8867 11.6638ZM10.8867 8.8879C12.9957 8.8879 14.7057 7.1789 14.7057 5.0689C14.7057 2.9599 12.9957 1.2499 10.8867 1.2499C8.7777 1.2499 7.0677 2.9599 7.0677 5.0689C7.0597 7.1709 8.7567 8.8809 10.8587 8.8879H10.8867Z" stroke="#9DA2AC" stroke-width="1.5" stroke-linecap="round" stroke-linejoin="round"/>
</svg>
